<svg xmlns="http://www.w3.org/2000/svg" width="367.737" height="130.635" viewBox="0 0 367.737 130.635">
  <path id="A_Avengers" d="M120.649,31.11,106.559,66.03l5.922-34.92H97.063l-9.8,74.231H103.9L136.476,31.11Zm22.462,42.885h13.376l3.88-13.172H146.991l4.8-16.337h13.682l3.982-13.376h-29.2L118.4,105.341h28.692L152.2,91.251H138.005Zm-87.177,46.55a46.357,46.357,0,0,1-22.171-5.613l-3.936,8.137a55.511,55.511,0,0,0,70.043-15.041H87.7A46.517,46.517,0,0,1,55.933,120.545Zm9.887-28.138v7.67l18.87-14.487L66.429,68.422v7.426H46.95l19.48-46.263V63.673L82.2,78.593,82.594,0H65.334L2.271,130.224l20.94.41L40.132,92.406ZM15.127,96.594A47.712,47.712,0,0,1,49.083,26.007l4.6-9.506C23.837,17.694,0,42.542,0,73.023a56.756,56.756,0,0,0,10.366,32.816Zm67.044,8.747V91.318L65.8,105.341ZM314.95,70.115c3.778,0,5.922-2.246,6.535-4.391l7.454-25.22c1.429-4.9-.715-9.394-7.352-9.394H293.508l-21.851,74.231h15.418l9.292-31.653h5.105c1.838,0,2.042,1.327,1.634,2.553l-8.577,29.1h15.418l7.964-27.058C319.545,72.974,317.3,70.523,314.95,70.115ZM312.5,46.12,308.416,59.9c-.715,2.246-2.042,2.859-3.574,2.859h-5.309l5.82-19.707h4.8c2.349,0,2.961,1.123,2.349,3.063ZM196.408,31.11,187.933,59.8l-.511-28.692H174.252L152.4,105.341h14.5l8.883-29.611,1.327,29.611h12.355L211.317,31.11ZM350.277,44.486h13.478l3.982-13.376h-23.79c-3.676,0-7.352,1.021-9.087,6.228l-8.475,28.794c-1.532,5.412,0,8.985,6.433,8.985h8.168c.919,0,.919.408.715,1.021L338.127,88.7c-.613,1.838-1.021,2.553-3.88,2.553H321.382L317.2,105.341h25.22c3.165,0,6.535-1.532,7.352-4.493l8.475-28.794c2.144-7.25-1.327-10.313-6.841-10.313H343.13l4.39-15.112a2.73,2.73,0,0,1,2.757-2.144ZM228.06,60.823l-3.88,13.172h3.165L221.73,92.986h-5.207c-2.042,0-2.961-.817-2.348-2.961l12.763-43.293c.51-1.838,1.328-2.246,2.961-2.246h15.01l3.982-13.376H224.283c-4.9,0-8.271,1.429-9.9,6.943l-15.724,53.5c-2.859,9.8,2.961,13.784,9.9,13.784h9.5l-1.634,5.82,17.154-8.679,12.253-41.659H228.061Zm34.307,13.172h13.376l3.88-13.172H266.247l4.8-16.337h13.682L288.71,31.11h-29.2l-21.851,74.231h28.692l5.105-14.091H257.262Z" fill="#343434"/>
</svg>
