<svg id="Capa_1" data-name="Capa 1" xmlns="http://www.w3.org/2000/svg" viewBox="0 0 515 299.22"><defs><style>.cls-1,.cls-3{fill:#343434;}.cls-2,.cls-3{isolation:isolate;}.cls-3{font-size:102px;font-family:Anton-Regular, Anton;}.cls-4{fill:none;stroke:#343434;stroke-width:5px;}</style></defs><g id="Grupo_1" data-name="Grupo 1"><path id="A_Avengers" data-name="A Avengers" class="cls-1" d="M171.23,52.73,151.5,101.49l8.29-48.76H138.2L124.47,156.39h23.3L193.39,52.73Zm31.46,59.88h18.73l5.43-18.39H208.12l6.72-22.81H234l5.58-18.68h-40.9l-30.6,103.66h40.19l7.15-19.68H195.54Zm-122.09,65a65,65,0,0,1-31-7.83L44,181.14a77.91,77.91,0,0,0,98.09-21h-17A65.3,65.3,0,0,1,80.6,177.62Zm13.85-39.29V149l26.42-20.23-25.57-24V115.2H68L95.3,50.6V98.2L117.39,119l.54-109.75H93.77L5.45,191.13l29.32.57,23.7-53.38Zm-71,5.85A66.55,66.55,0,0,1,71,45.61l6.45-13.28C35.65,34,2.27,68.69,2.27,111.26a79.06,79.06,0,0,0,14.51,45.82Zm93.89,12.22V136.8L94.42,156.39Zm326-49.19c5.29,0,8.3-3.14,9.15-6.13l10.44-35.22c2-6.84-1-13.12-10.3-13.12H413.31l-30.6,103.66H404.3l13-44.2h7.15c2.58,0,2.86,1.85,2.29,3.56l-12,40.63h21.59l11.16-37.78c2.28-7.41-.86-10.83-4.15-11.4Zm-3.43-33.51-5.72,19.25c-1,3.14-2.86,4-5,4h-7.43l8.15-27.52h6.72c3.29,0,4.15,1.57,3.29,4.28Zm-162.58-21L265.46,92.79l-.72-40.06H246.3L215.7,156.38H236L248.44,115l1.86,41.35h17.3L298.2,52.73ZM492.81,71.41h18.88l5.58-18.68H484c-5.15,0-10.3,1.43-12.73,8.7l-11.87,40.21c-2.14,7.55,0,12.54,9,12.54H479.8c1.29,0,1.29.57,1,1.43l-5,17.54c-.86,2.56-1.43,3.56-5.43,3.56h-18l-5.87,19.68H481.8c4.44,0,9.16-2.14,10.3-6.28L504,109.91c3-10.13-1.86-14.4-9.59-14.4H482.8L489,74.41a3.83,3.83,0,0,1,3.86-3ZM321.65,94.22l-5.43,18.39h4.43l-7.86,26.52H305.5c-2.86,0-4.15-1.14-3.29-4.13l17.87-60.45c.72-2.57,1.86-3.14,4.15-3.14h21l5.58-18.68H316.37c-6.87,0-11.59,2-13.88,9.7l-22,74.71c-4,13.69,4.15,19.25,13.87,19.25h13.3l-2.28,8.13,24-12.13,17.16-58.17Zm48.05,18.39h18.73l5.44-18.39H375.13l6.72-22.81H401l5.58-18.68h-40.9l-30.6,103.66h40.19l7.15-19.68H362.55Z" transform="translate(-2.27 -9.29)"/><g id="UNIVERSE" class="cls-2"><text class="cls-3" transform="translate(146.79 266)">UNIVERSE</text></g><path id="Trazado_3" data-name="Trazado 3" class="cls-4" d="M149.55,170h346" transform="translate(-2.27 -9.29)"/></g></svg>